<?xml version="1.0" encoding="UTF-8" standalone="no"?>
<!DOCTYPE svg PUBLIC "-//W3C//DTD SVG 1.1//EN" "http://www.w3.org/Graphics/SVG/1.1/DTD/svg11.dtd">
<svg width="100%" height="100%" viewBox="0 0 1666 362" version="1.1" xmlns="http://www.w3.org/2000/svg" xmlns:xlink="http://www.w3.org/1999/xlink" xml:space="preserve" xmlns:serif="http://www.serif.com/" style="fill-rule:evenodd;clip-rule:evenodd;stroke-linejoin:round;stroke-miterlimit:2;">
    <g transform="matrix(2.5972,0,0,2.5972,902.07,-94.2014)">
        <path d="M253.801,171.97L226.039,171.97L230.664,145.739L242.094,145.739L246.72,119.508L235.29,119.508L239.915,93.276L251.345,93.276L255.97,67.044L244.541,67.044L249.166,40.813L276.928,40.813L290.483,57.27L284.707,90.028L265.364,106.392L278.936,122.755L273.143,155.607L253.801,171.97ZM276.928,40.813L290.483,57.27L284.707,90.028L265.364,106.392L278.936,122.755L273.143,155.607L253.801,171.97L226.039,171.97L230.664,145.739L242.094,145.739L246.72,119.508L235.29,119.508L239.915,93.276L251.345,93.276L255.97,67.044L244.541,67.044L249.166,40.813L276.928,40.813ZM186.511,126.065L219.332,126.065L215.863,145.739L227.292,145.739L222.667,171.97L194.812,171.97L181.333,155.607L186.511,126.065ZM192.206,40.813L169.08,171.97L136.29,171.97L154.786,67.076L151.507,67.076L143.054,40.813L192.206,40.813ZM245.793,40.813L241.168,67.044L229.739,67.044L226.27,86.718L193.48,86.718L198.673,57.27L217.938,40.813L245.793,40.813Z" style="fill:rgb(242,242,242);fill-rule:nonzero;"/>
    </g>
    <g id="Capa-1" serif:id="Capa 1" transform="matrix(4.16667,0,0,4.16667,-48,-449)">
        <g>
            <g transform="matrix(1,0,0,1,-43.88,-99.2565)">
                <path d="M96.586,260.972C102.195,260.972 106.784,256.485 106.784,250.877C106.784,245.267 102.195,240.678 96.586,240.678C90.978,240.678 86.491,245.267 86.491,250.877C86.491,256.485 90.978,260.972 96.586,260.972ZM57.629,250.877C57.629,230.072 75.171,213.246 96.689,213.246C118.206,213.246 135.644,230.072 135.644,250.877C135.644,271.68 118.206,288.609 96.689,288.609C75.171,288.609 57.629,271.68 57.629,250.877" style="fill:rgb(242,242,242);fill-rule:nonzero;"/>
            </g>
            <g transform="matrix(1,0,0,1,-42.44,-98.3557)">
                <rect x="267.565" y="214.826" width="26.688" height="71.303" style="fill:rgb(242,242,242);"/>
            </g>
            <g transform="matrix(1,0,0,1,-42.44,-98.3557)">
                <path d="M312.994,240.291L297.104,240.291L297.104,214.826L355.267,214.826L355.267,240.291L339.376,240.291L339.376,286.128L312.994,286.128L312.994,240.291Z" style="fill:rgb(242,242,242);fill-rule:nonzero;"/>
            </g>
            <g transform="matrix(1,0,0,1,-43.16,-98.3551)">
                <path d="M265.53,239.374L265.53,214.825L207.367,214.825L207.367,286.128L233.851,286.128L233.851,264.533L265.53,264.533L265.53,241.207L233.851,241.207L233.851,239.374L265.53,239.374Z" style="fill:rgb(242,242,242);fill-rule:nonzero;"/>
            </g>
            <g transform="matrix(1,0,0,1,-43.88,-98.2712)">
                <path d="M191.941,257.195L182.997,245.642L163.111,214.742L137.616,214.742L137.616,286.129L164.131,286.129L164.131,265.936L158.318,256.554L147.306,235.945L178.51,286.129L205.331,286.129L205.331,214.741L178.817,214.741L178.817,236.362L191.941,257.195Z" style="fill:rgb(242,242,242);fill-rule:nonzero;"/>
            </g>
        </g>
    </g>
</svg>
